<svg width="64" height="64" viewBox="0 0 64 64" fill="none" xmlns="http://www.w3.org/2000/svg">
<path d="M42 0H22C9.84974 0 0 9.84974 0 22V42C0 54.1503 9.84974 64 22 64H42C54.1503 64 64 54.1503 64 42V22C64 9.84974 54.1503 0 42 0Z" fill="url(#paint0_linear_129_312)"/>
<path fill-rule="evenodd" clip-rule="evenodd" d="M40.9581 27C40.9581 25.9501 40.5411 24.9433 39.7988 24.201C39.0564 23.4587 38.0496 23.0416 36.9998 23.0416H26.9998C25.95 23.0416 24.9432 23.4587 24.2008 24.201C23.4585 24.9433 23.0415 25.9501 23.0415 27V37C23.0415 38.0498 23.4585 39.0566 24.2008 39.7989C24.9432 40.5413 25.95 40.9583 26.9998 40.9583H36.9998C38.0496 40.9583 39.0564 40.5413 39.7988 39.7989C40.5411 39.0566 40.9581 38.0498 40.9581 37V27ZM32.4065 28.8025L30.4065 34.8025C30.3615 34.9578 30.3784 35.1244 30.4537 35.2676C30.5289 35.4107 30.6566 35.5191 30.81 35.5702C30.9634 35.6213 31.1306 35.611 31.2766 35.5415C31.4226 35.472 31.536 35.3487 31.5931 35.1975L33.5931 29.1975C33.6381 29.0421 33.6212 28.8755 33.5459 28.7324C33.4707 28.5892 33.343 28.4808 33.1896 28.4297C33.0362 28.3787 32.869 28.3889 32.723 28.4584C32.577 28.5279 32.4636 28.6512 32.4065 28.8025ZM34.5581 30.4416L36.1156 32L34.5581 33.5583C34.5001 33.6163 34.4541 33.6852 34.4227 33.7609C34.3913 33.8367 34.3752 33.9179 34.3752 34C34.3752 34.082 34.3913 34.1632 34.4227 34.239C34.4541 34.3148 34.5001 34.3836 34.5581 34.4416C34.6161 34.4996 34.685 34.5456 34.7608 34.577C34.8366 34.6084 34.9178 34.6246 34.9998 34.6246C35.0818 34.6246 35.163 34.6084 35.2388 34.577C35.3146 34.5456 35.3835 34.4996 35.4415 34.4416L37.4415 32.4416C37.4995 32.3837 37.5456 32.3148 37.577 32.239C37.6084 32.1632 37.6246 32.082 37.6246 32C37.6246 31.9179 37.6084 31.8367 37.577 31.7609C37.5456 31.6851 37.4995 31.6163 37.4415 31.5583L35.4415 29.5583C35.3835 29.5003 35.3146 29.4543 35.2388 29.4229C35.163 29.3915 35.0818 29.3753 34.9998 29.3753C34.9178 29.3753 34.8366 29.3915 34.7608 29.4229C34.685 29.4543 34.6161 29.5003 34.5581 29.5583C34.5001 29.6163 34.4541 29.6851 34.4227 29.7609C34.3913 29.8367 34.3752 29.9179 34.3752 30C34.3752 30.082 34.3913 30.1632 34.4227 30.239C34.4541 30.3148 34.5001 30.3836 34.5581 30.4416ZM28.5581 29.5583L26.5581 31.5583C26.5001 31.6163 26.454 31.6851 26.4226 31.7609C26.3912 31.8367 26.375 31.9179 26.375 32C26.375 32.082 26.3912 32.1632 26.4226 32.239C26.454 32.3148 26.5001 32.3837 26.5581 32.4416L28.5581 34.4416C28.6161 34.4996 28.685 34.5456 28.7608 34.577C28.8366 34.6084 28.9178 34.6246 28.9998 34.6246C29.0818 34.6246 29.163 34.6084 29.2388 34.577C29.3146 34.5456 29.3835 34.4996 29.4415 34.4416C29.4995 34.3836 29.5455 34.3148 29.5769 34.239C29.6083 34.1632 29.6244 34.082 29.6244 34C29.6244 33.9179 29.6083 33.8367 29.5769 33.7609C29.5455 33.6852 29.4995 33.6163 29.4415 33.5583L27.884 32L29.4415 30.4416C29.4995 30.3836 29.5455 30.3148 29.5769 30.239C29.6083 30.1632 29.6244 30.082 29.6244 30C29.6244 29.9179 29.6083 29.8367 29.5769 29.7609C29.5455 29.6851 29.4995 29.6163 29.4415 29.5583C29.3835 29.5003 29.3146 29.4543 29.2388 29.4229C29.163 29.3915 29.0818 29.3753 28.9998 29.3753C28.9178 29.3753 28.8366 29.3915 28.7608 29.4229C28.685 29.4543 28.6161 29.5003 28.5581 29.5583Z" fill="white"/>
<defs>
<linearGradient id="paint0_linear_129_312" x1="32" y1="0" x2="32" y2="64" gradientUnits="userSpaceOnUse">
<stop stop-color="#2979FF"/>
<stop offset="1" stop-color="#1E5EFF"/>
</linearGradient>
</defs>
</svg>
